<svg xmlns="http://www.w3.org/2000/svg" class="icon icon-tabler icon-tabler-ball-volleyball" width="44" height="44" viewBox="0 0 24 24" stroke-width="1.5" stroke="currentColor" fill="none" stroke-linecap="round" stroke-linejoin="round">
  <path stroke="none" d="M0 0h24v24H0z" fill="none"></path>
  <circle cx="12" cy="12" r="9"></circle>
  <path d="M12 12a8 8 0 0 0 8 4m-12.5 -2.5a12 12 0 0 0 8.5 6.5"></path>
  <path d="M12 12a8 8 0 0 0 8 4m-12.5 -2.5a12 12 0 0 0 8.5 6.5" transform="rotate(120 12 12)"></path>
  <path d="M12 12a8 8 0 0 0 8 4m-12.5 -2.5a12 12 0 0 0 8.5 6.5" transform="rotate(240 12 12)"></path>
</svg>