<svg xmlns="http://www.w3.org/2000/svg" class="icon icon-tabler icon-tabler-brand-php" width="44" height="44" viewBox="0 0 24 24" stroke-width="1.5" stroke="currentColor" fill="none" stroke-linecap="round" stroke-linejoin="round">
  <path stroke="none" d="M0 0h24v24H0z" fill="none"></path>
    <ellipse cx="12" cy="12" rx="10" ry="9"></ellipse>
  <path d="M5.5 15l.395 -1.974l.605 -3.026h1.32a1 1 0 0 1 .986 1.164l-.167 1a1 1 0 0 1 -.986 .836h-1.653"></path>
  <path d="M15.5 15l.395 -1.974l.605 -3.026h1.32a1 1 0 0 1 .986 1.164l-.167 1a1 1 0 0 1 -.986 .836h-1.653"></path>
  <path d="M12 7.5l-1 5.5"></path>
  <path d="M11.6 10h2.4l-.5 3"></path>
</svg>