<svg xmlns="http://www.w3.org/2000/svg" class="icon icon-tabler icon-tabler-face-id" width="44" height="44" viewBox="0 0 24 24" stroke-width="1.5" stroke="currentColor" fill="none" stroke-linecap="round" stroke-linejoin="round">
  <path stroke="none" d="M0 0h24v24H0z" fill="none"></path>
  <path d="M4 8v-2a2 2 0 0 1 2 -2h2"></path>
  <path d="M4 16v2a2 2 0 0 0 2 2h2"></path>
  <path d="M16 4h2a2 2 0 0 1 2 2v2"></path>
  <path d="M16 20h2a2 2 0 0 0 2 -2v-2"></path>
  <line x1="9" y1="10" x2="9.01" y2="10"></line>
  <line x1="15" y1="10" x2="15.01" y2="10"></line>
  <path d="M9.5 15a3.5 3.5 0 0 0 5 0"></path>
</svg>